<svg xmlns="http://www.w3.org/2000/svg" width="400" height="354" viewBox="0 0 400 354"><path d="M 98,16 L 96,18 L 95,18 L 94,19 L 94,21 L 93,22 L 93,26 L 94,27 L 94,31 L 95,32 L 95,33 L 96,34 L 96,36 L 97,37 L 97,38 L 98,39 L 98,41 L 100,43 L 100,45 L 101,46 L 101,47 L 102,48 L 102,50 L 104,52 L 104,54 L 105,55 L 105,56 L 106,57 L 106,59 L 107,60 L 107,61 L 108,62 L 108,64 L 110,66 L 110,69 L 111,70 L 111,71 L 112,72 L 112,75 L 113,76 L 113,77 L 114,78 L 114,81 L 116,83 L 116,86 L 117,87 L 117,88 L 118,89 L 118,91 L 117,92 L 116,92 L 108,84 L 107,84 L 105,82 L 104,82 L 100,78 L 98,78 L 96,76 L 88,76 L 84,80 L 84,88 L 85,89 L 85,90 L 86,91 L 86,92 L 91,97 L 92,97 L 93,98 L 94,98 L 95,99 L 96,99 L 98,101 L 99,101 L 101,103 L 102,103 L 104,105 L 105,105 L 107,107 L 108,107 L 110,109 L 111,109 L 115,113 L 116,113 L 126,123 L 126,128 L 122,132 L 120,132 L 118,134 L 116,134 L 114,136 L 113,136 L 111,138 L 110,138 L 108,140 L 107,140 L 98,149 L 98,150 L 96,152 L 96,153 L 94,155 L 94,156 L 92,158 L 92,159 L 91,160 L 91,161 L 90,162 L 90,164 L 89,165 L 89,166 L 88,167 L 88,171 L 87,172 L 87,173 L 86,174 L 86,175 L 81,180 L 80,180 L 76,184 L 76,185 L 74,187 L 74,188 L 72,190 L 72,192 L 71,193 L 71,194 L 70,195 L 70,205 L 71,206 L 71,207 L 72,208 L 72,211 L 75,214 L 75,215 L 78,218 L 78,219 L 84,225 L 85,225 L 87,227 L 88,227 L 90,229 L 91,229 L 93,231 L 95,231 L 96,232 L 97,232 L 98,233 L 101,233 L 102,234 L 103,234 L 104,235 L 113,235 L 114,236 L 115,236 L 116,237 L 117,237 L 118,238 L 118,239 L 117,240 L 115,240 L 114,241 L 113,241 L 112,242 L 109,242 L 108,243 L 107,243 L 106,244 L 104,244 L 103,245 L 102,245 L 101,246 L 98,246 L 97,247 L 96,247 L 95,248 L 92,248 L 91,249 L 90,249 L 89,250 L 86,250 L 85,251 L 84,251 L 83,252 L 80,252 L 79,253 L 78,253 L 77,254 L 74,254 L 73,255 L 72,255 L 71,256 L 68,256 L 67,257 L 66,257 L 65,258 L 62,258 L 61,259 L 60,259 L 59,260 L 56,260 L 55,261 L 54,261 L 53,262 L 50,262 L 49,263 L 48,263 L 47,264 L 45,264 L 43,266 L 42,266 L 41,267 L 40,267 L 39,268 L 38,268 L 38,269 L 35,272 L 35,273 L 34,274 L 34,275 L 33,276 L 33,277 L 32,278 L 32,291 L 34,293 L 34,295 L 36,297 L 36,298 L 37,299 L 38,299 L 42,303 L 45,303 L 46,304 L 47,304 L 48,305 L 57,305 L 58,304 L 60,304 L 61,303 L 64,303 L 65,302 L 66,302 L 67,301 L 70,301 L 71,300 L 72,300 L 73,299 L 76,299 L 77,298 L 78,298 L 79,297 L 82,297 L 83,296 L 84,296 L 85,295 L 88,295 L 89,294 L 90,294 L 91,293 L 94,293 L 95,292 L 96,292 L 97,291 L 100,291 L 101,290 L 102,290 L 103,289 L 106,289 L 107,288 L 108,288 L 109,287 L 112,287 L 113,286 L 114,286 L 115,285 L 118,285 L 119,284 L 120,284 L 121,283 L 124,283 L 126,281 L 129,281 L 130,280 L 131,280 L 132,279 L 135,279 L 136,278 L 137,278 L 138,277 L 141,277 L 143,279 L 143,280 L 144,281 L 144,282 L 146,284 L 146,286 L 150,290 L 150,291 L 160,301 L 161,301 L 162,302 L 162,303 L 163,303 L 165,305 L 166,305 L 168,307 L 169,307 L 170,308 L 171,308 L 172,309 L 173,309 L 175,311 L 177,311 L 178,312 L 179,312 L 180,313 L 181,313 L 182,314 L 183,314 L 184,315 L 187,315 L 188,316 L 189,316 L 190,317 L 193,317 L 194,318 L 195,318 L 196,319 L 201,319 L 202,320 L 205,320 L 206,321 L 215,321 L 216,322 L 231,322 L 232,321 L 245,321 L 246,320 L 248,320 L 249,319 L 253,319 L 254,318 L 256,318 L 257,317 L 261,317 L 262,316 L 263,316 L 264,315 L 266,315 L 268,313 L 270,313 L 271,312 L 272,312 L 273,311 L 275,311 L 277,309 L 279,309 L 281,307 L 282,307 L 284,305 L 285,305 L 285,304 L 286,303 L 287,303 L 289,301 L 290,301 L 292,299 L 296,299 L 297,300 L 298,300 L 299,301 L 300,301 L 301,302 L 302,302 L 303,303 L 305,303 L 307,305 L 309,305 L 310,306 L 311,306 L 312,307 L 314,307 L 316,309 L 318,309 L 320,311 L 322,311 L 323,312 L 324,312 L 325,313 L 327,313 L 329,315 L 331,315 L 332,316 L 333,316 L 334,317 L 335,317 L 336,318 L 337,318 L 338,319 L 340,319 L 342,321 L 344,321 L 345,322 L 347,322 L 348,323 L 360,323 L 361,322 L 362,322 L 363,321 L 364,321 L 366,319 L 367,319 L 371,315 L 371,314 L 373,312 L 373,309 L 374,308 L 374,307 L 375,306 L 375,300 L 374,299 L 374,296 L 373,295 L 373,293 L 371,291 L 371,290 L 367,286 L 366,286 L 364,284 L 363,284 L 361,282 L 359,282 L 357,280 L 355,280 L 354,279 L 353,279 L 352,278 L 350,278 L 348,276 L 346,276 L 345,275 L 344,275 L 343,274 L 342,274 L 341,273 L 340,273 L 339,272 L 337,272 L 335,270 L 333,270 L 332,269 L 331,269 L 330,268 L 328,268 L 326,266 L 324,266 L 322,264 L 320,264 L 319,263 L 318,263 L 317,262 L 315,262 L 313,260 L 313,256 L 312,255 L 312,248 L 313,247 L 316,247 L 317,246 L 318,246 L 319,245 L 321,245 L 322,244 L 323,244 L 326,241 L 327,241 L 329,239 L 330,239 L 335,234 L 335,233 L 336,232 L 336,231 L 337,230 L 337,228 L 338,227 L 338,225 L 339,224 L 339,205 L 338,204 L 323,204 L 322,205 L 319,205 L 318,206 L 315,206 L 314,207 L 313,207 L 312,208 L 311,208 L 309,210 L 308,210 L 304,214 L 304,215 L 301,218 L 301,219 L 298,222 L 290,214 L 289,214 L 287,212 L 286,212 L 284,210 L 283,210 L 281,208 L 280,208 L 278,206 L 277,206 L 276,205 L 275,205 L 274,204 L 272,204 L 270,202 L 268,202 L 267,201 L 266,201 L 265,200 L 262,200 L 260,198 L 256,198 L 255,197 L 253,197 L 252,196 L 248,196 L 247,195 L 243,195 L 242,194 L 228,194 L 227,193 L 224,193 L 223,194 L 208,194 L 207,195 L 204,195 L 203,196 L 201,194 L 201,175 L 200,174 L 200,172 L 199,171 L 199,168 L 198,167 L 198,166 L 197,165 L 197,163 L 195,161 L 195,158 L 194,157 L 194,156 L 195,155 L 195,153 L 196,152 L 196,151 L 197,150 L 197,149 L 198,148 L 198,147 L 199,146 L 199,144 L 201,142 L 201,139 L 202,138 L 202,137 L 203,136 L 203,134 L 204,133 L 204,131 L 205,130 L 205,126 L 206,125 L 206,124 L 207,123 L 207,119 L 208,118 L 208,117 L 209,116 L 209,115 L 213,111 L 213,110 L 217,106 L 217,105 L 221,101 L 222,101 L 228,95 L 229,95 L 229,94 L 230,93 L 231,93 L 233,91 L 234,91 L 236,89 L 237,89 L 239,87 L 240,87 L 242,85 L 243,85 L 245,83 L 246,83 L 248,81 L 249,81 L 249,80 L 250,79 L 251,79 L 253,77 L 253,76 L 255,74 L 255,73 L 256,72 L 256,71 L 257,70 L 257,61 L 253,57 L 247,57 L 246,58 L 245,58 L 243,60 L 242,60 L 239,63 L 238,63 L 229,72 L 228,72 L 228,73 L 227,74 L 226,74 L 226,75 L 225,76 L 224,76 L 217,83 L 216,83 L 215,84 L 213,82 L 213,81 L 214,80 L 214,73 L 215,72 L 215,55 L 216,54 L 216,40 L 215,39 L 215,35 L 213,33 L 213,32 L 212,32 L 211,31 L 211,30 L 209,30 L 208,29 L 204,29 L 203,30 L 202,30 L 200,32 L 200,33 L 198,35 L 198,40 L 197,41 L 197,44 L 196,45 L 196,61 L 195,62 L 195,70 L 194,71 L 194,82 L 193,83 L 193,86 L 192,87 L 192,95 L 191,96 L 191,99 L 190,100 L 190,104 L 189,105 L 188,105 L 187,104 L 187,101 L 186,100 L 186,99 L 185,98 L 185,95 L 184,94 L 184,93 L 183,92 L 183,91 L 182,90 L 182,89 L 181,88 L 181,86 L 179,84 L 179,83 L 177,81 L 177,80 L 176,80 L 174,78 L 173,78 L 172,77 L 168,77 L 167,78 L 166,78 L 162,82 L 162,87 L 161,88 L 161,89 L 162,90 L 162,94 L 163,95 L 163,96 L 164,97 L 164,98 L 166,100 L 166,101 L 167,102 L 167,103 L 168,104 L 168,105 L 170,107 L 170,109 L 172,111 L 172,112 L 174,114 L 174,116 L 176,118 L 176,120 L 177,121 L 177,122 L 178,123 L 178,125 L 179,126 L 179,127 L 180,128 L 180,130 L 178,132 L 178,133 L 175,136 L 172,136 L 170,134 L 168,134 L 166,132 L 164,132 L 162,130 L 158,130 L 157,129 L 155,129 L 154,128 L 148,128 L 145,125 L 145,114 L 144,113 L 144,109 L 143,108 L 143,103 L 142,102 L 142,100 L 141,99 L 141,94 L 140,93 L 140,91 L 141,90 L 141,84 L 142,83 L 142,81 L 143,80 L 143,75 L 145,73 L 145,70 L 146,69 L 146,68 L 147,67 L 147,65 L 148,64 L 148,63 L 149,62 L 149,60 L 151,58 L 151,57 L 153,55 L 153,53 L 155,51 L 155,50 L 156,49 L 156,48 L 157,47 L 157,46 L 158,45 L 158,44 L 159,43 L 159,41 L 160,40 L 160,39 L 161,38 L 161,28 L 160,27 L 160,26 L 159,25 L 159,24 L 155,20 L 149,20 L 145,24 L 145,25 L 144,26 L 144,27 L 143,28 L 143,29 L 142,30 L 142,32 L 141,33 L 141,34 L 140,35 L 140,38 L 139,39 L 139,40 L 138,41 L 138,44 L 136,46 L 136,49 L 135,50 L 135,51 L 134,52 L 134,55 L 133,56 L 133,57 L 132,58 L 132,60 L 130,62 L 129,61 L 129,60 L 127,58 L 127,56 L 126,55 L 126,54 L 125,53 L 125,51 L 123,49 L 123,46 L 121,44 L 121,42 L 120,41 L 120,40 L 119,39 L 119,37 L 117,35 L 117,33 L 116,32 L 116,31 L 115,30 L 115,29 L 114,28 L 114,27 L 113,26 L 113,25 L 111,23 L 111,22 L 107,18 L 106,18 L 104,16 Z" fill="#c0b9ff80" /></svg>