<svg xmlns="http://www.w3.org/2000/svg" viewBox="0 0 800 640">
  <mask id="cutout">
    <rect width="800" height="640" fill="white"/>
    <text x="300" y="380" font-size="120" font-family="Courier" text-anchor="middle" fill="black" transform="rotate(-135 320 340)">one</text>
  </mask>

  <path transform="rotate(135 320 320)" fill="#7575ff" mask="url(#cutout)"
        d="M96.5 160L96.5 309.5C96.5 326.5 103.2 342.8 115.2 354.8L307.2 546.8C332.2 571.8 372.7 571.8 397.7 546.8L547.2 397.3C572.2 372.3 572.2 331.8 547.2 306.8L355.2 114.8C343.2 102.7 327 96 310 96L160.5 96C125.2 96 96.5 124.7 96.5 160zM208.5 176C226.2 176 240.5 190.3 240.5 208C240.5 225.7 226.2 240 208.5 240C190.8 240 176.5 225.7 176.5 208C176.5 190.3 190.8 176 208.5 176z"/>
  
  <path d="M510 320 
  C 580 350, 620 230, 780 220" 
  stroke="white" fill="transparent" stroke-width="10"/>
</svg>
